<svg xmlns="http://www.w3.org/2000/svg" viewBox="0 0 100 100">
  <path fill="#0052CC" d="M47.5,62.1c-1.2-1.6-2.9-2.5-4.7-2.5c-1.8,0-3.5,0.9-4.7,2.5L22.8,84.9c-1.2,1.6-1.2,3.4,0,5
    c1.2,1.6,2.9,2.5,4.7,2.5h31.1c1.8,0,3.5-0.9,4.7-2.5c1.2-1.6,1.2-3.4,0-5L47.5,62.1z"/>
  <path fill="#2684FF" d="M72.5,7.6c-1.2-1.6-2.9-2.5-4.7-2.5c-1.8,0-3.5,0.9-4.7,2.5c0,0-26.5,36-31.1,42.3
    c-1.2,1.6-1.2,3.4,0,5c1.2,1.6,2.9,2.5,4.7,2.5h20.7c1.8,0,4.2-0.9,5.4-2.5c4.6-6.3,31.1-42.3,31.1-42.3
    C75.2,10.9,73.7,9.1,72.5,7.6z"/>
</svg>