<svg xmlns="http://www.w3.org/2000/svg" viewBox="0 0 100 100">
  <path fill="#E01E5A" d="M22.1,62.9c0,6.1-5,11.1-11.1,11.1S0,69,0,62.9c0-6.1,5-11.1,11.1-11.1h11.1V62.9z"/>
  <path fill="#36C5F0" d="M27.8,62.9c0-6.1,5-11.1,11.1-11.1s11.1,5,11.1,11.1v27.8c0,6.1-5,11.1-11.1,11.1s-11.1-5-11.1-11.1V62.9z"
  />
  <path fill="#2EB67D" d="M38.9,22.1c-6.1,0-11.1-5-11.1-11.1S32.8,0,38.9,0s11.1,5,11.1,11.1v11.1H38.9z"/>
  <path fill="#ECB22E" d="M38.9,27.8c6.1,0,11.1,5,11.1,11.1s-5,11.1-11.1,11.1H11.1C5,50,0,45,0,38.9s5-11.1,11.1-11.1H38.9z"/>
  <path fill="#E01E5A" d="M77.9,38.9c0-6.1,5-11.1,11.1-11.1S100,32.8,100,38.9s-5,11.1-11.1,11.1H77.9V38.9z"/>
  <path fill="#36C5F0" d="M72.2,38.9c0,6.1-5,11.1-11.1,11.1s-11.1-5-11.1-11.1V11.1C50,5,55,0,61.1,0s11.1,5,11.1,11.1V38.9z"/>
  <path fill="#2EB67D" d="M61.1,77.9c6.1,0,11.1,5,11.1,11.1S67.2,100,61.1,100s-11.1-5-11.1-11.1V77.9H61.1z"/>
  <path fill="#ECB22E" d="M61.1,72.2c-6.1,0-11.1-5-11.1-11.1s5-11.1,11.1-11.1h27.8c6.1,0,11.1,5,11.1,11.1s-5,11.1-11.1,11.1H61.1z"
  />
</svg>